<?xml version="1.0" encoding="UTF-8"?>
<svg width="840px" height="360px" viewBox="0 0 840 360" version="1.1" xmlns="http://www.w3.org/2000/svg" xmlns:xlink="http://www.w3.org/1999/xlink">
    <!-- Generator: Sketch 48.2 (47327) - http://www.bohemiancoding.com/sketch -->
    <title>Microbot Team 灰色</title>
    <desc>Created with Sketch.</desc>
    <defs></defs>
    <g id="Microbot-Team" stroke="none" stroke-width="1" fill="none" fill-rule="evenodd" transform="translate(-1265.000000, -1569.000000)">
        <path d="M1649.67131,1726.01513 L1649.67131,1605 L1666.33382,1605 L1688.60718,1669.07683 L1688.94723,1669.07683 L1711.05057,1605 L1727.88311,1605 L1727.88311,1726.01513 L1710.54049,1726.01513 L1710.54049,1652.42026 L1710.20044,1652.42026 L1693.02785,1704.42957 L1684.35654,1704.42957 L1667.35398,1652.42026 L1667.01392,1652.42026 L1667.01392,1726.01513 L1649.67131,1726.01513 Z M1743.18542,1726.01513 L1743.18542,1639.84284 L1760.52803,1639.84284 L1760.52803,1726.01513 L1743.18542,1726.01513 Z M1743.18542,1622.33644 L1743.18542,1605 L1760.52803,1605 L1760.52803,1622.33644 L1743.18542,1622.33644 Z M1793.17296,1701.20023 C1793.17296,1703.91969 1793.93806,1706.0159 1795.4683,1707.48894 C1796.99854,1708.96198 1799.06717,1709.69849 1801.67424,1709.69849 C1804.96142,1709.69849 1807.14339,1708.73536 1808.22023,1706.80908 C1809.29706,1704.8828 1809.94882,1702.95655 1810.17552,1701.03027 L1827.51814,1701.03027 C1827.51814,1708.62208 1825.19448,1714.74076 1820.54709,1719.3865 C1818.28007,1721.76602 1815.55968,1723.63562 1812.38586,1724.99534 C1809.21203,1726.35507 1805.64152,1727.03492 1801.67424,1727.03492 C1796.23339,1727.03492 1791.61441,1725.90184 1787.81715,1723.63562 C1784.01989,1721.36941 1781.10115,1718.36672 1779.06083,1714.62747 C1777.81397,1712.36126 1776.96385,1709.75516 1776.51044,1706.80908 C1776.05704,1703.863 1775.83034,1700.6337 1775.83034,1697.12107 L1775.83034,1668.7369 C1775.83034,1665.22427 1776.05704,1661.99497 1776.51044,1659.04889 C1776.96385,1656.10282 1777.81397,1653.49671 1779.06083,1651.2305 C1781.10115,1647.49125 1784.01989,1644.48856 1787.81715,1642.22235 C1791.61441,1639.95614 1796.23339,1638.82305 1801.67424,1638.82305 C1805.64152,1638.82305 1809.24036,1639.5029 1812.47087,1640.86263 C1815.70137,1642.22236 1818.45009,1644.09196 1820.71711,1646.47148 C1825.25115,1651.57046 1827.51814,1658.19903 1827.51814,1666.35739 L1810.17552,1666.35739 C1810.17552,1662.84476 1809.41041,1660.26699 1807.88018,1658.62398 C1806.34994,1656.98098 1804.28131,1656.15949 1801.67424,1656.15949 C1799.06717,1656.15949 1796.99854,1656.98098 1795.4683,1658.62398 C1793.93806,1660.26699 1793.17296,1662.73145 1793.17296,1666.01746 L1793.17296,1701.20023 Z M1837.71968,1726.01513 L1837.71968,1639.84284 L1855.06229,1639.84284 L1855.06229,1649.02095 C1858.57617,1645.84826 1862.03333,1643.35546 1865.43386,1641.54249 C1868.83439,1639.72952 1873.02831,1638.82305 1878.01576,1638.82305 L1878.01576,1657.17928 C1876.31549,1656.49941 1874.55858,1656.15949 1872.74496,1656.15949 C1870.93135,1656.15949 1868.97607,1656.47109 1866.87908,1657.0943 C1864.78208,1657.7175 1862.88348,1658.76561 1861.18322,1660.23865 C1859.3696,1661.71169 1857.89606,1663.63794 1856.76255,1666.01746 C1855.62904,1668.39699 1855.06229,1671.34302 1855.06229,1674.85565 L1855.06229,1726.01513 L1837.71968,1726.01513 Z M1883.45658,1668.7369 C1883.45658,1665.22427 1883.68328,1661.99497 1884.13668,1659.04889 C1884.59008,1656.10282 1885.4402,1653.49671 1886.68706,1651.2305 C1888.72738,1647.49125 1891.64613,1644.48856 1895.44339,1642.22235 C1899.24064,1639.95614 1903.85963,1638.82305 1909.30048,1638.82305 C1914.74132,1638.82305 1919.36031,1639.95614 1923.15757,1642.22235 C1926.95483,1644.48856 1929.87357,1647.49125 1931.91389,1651.2305 C1933.16075,1653.49671 1934.01087,1656.10282 1934.46427,1659.04889 C1934.91768,1661.99497 1935.14438,1665.22427 1935.14438,1668.7369 L1935.14438,1697.12107 C1935.14438,1700.6337 1934.91768,1703.863 1934.46427,1706.80908 C1934.01087,1709.75516 1933.16075,1712.36126 1931.91389,1714.62747 C1929.87357,1718.36672 1926.95483,1721.36941 1923.15757,1723.63562 C1919.36031,1725.90184 1914.74132,1727.03492 1909.30048,1727.03492 C1903.85963,1727.03492 1899.24064,1725.90184 1895.44339,1723.63562 C1891.64613,1721.36941 1888.72738,1718.36672 1886.68706,1714.62747 C1885.4402,1712.36126 1884.59008,1709.75516 1884.13668,1706.80908 C1883.68328,1703.863 1883.45658,1700.6337 1883.45658,1697.12107 L1883.45658,1668.7369 Z M1900.79919,1699.84051 C1900.79919,1703.12652 1901.5643,1705.59099 1903.09454,1707.23399 C1904.62478,1708.877 1906.6934,1709.69849 1909.30048,1709.69849 C1911.90755,1709.69849 1913.97617,1708.877 1915.50641,1707.23399 C1917.03665,1705.59099 1917.80176,1703.12652 1917.80176,1699.84051 L1917.80176,1666.01746 C1917.80176,1662.73145 1917.03665,1660.26699 1915.50641,1658.62398 C1913.97617,1656.98098 1911.90755,1656.15949 1909.30048,1656.15949 C1906.6934,1656.15949 1904.62478,1656.98098 1903.09454,1658.62398 C1901.5643,1660.26699 1900.79919,1662.73145 1900.79919,1666.01746 L1900.79919,1699.84051 Z M1947.8963,1726.01513 L1947.8963,1605 L1965.23892,1605 L1965.23892,1647.66123 L1965.57897,1647.66123 C1967.50593,1644.82847 1969.80126,1642.64727 1972.46501,1641.11758 C1975.12875,1639.58789 1978.16085,1638.82305 1981.56138,1638.82305 C1985.75536,1638.82305 1989.01416,1639.55956 1991.33785,1641.0326 C1993.66155,1642.50563 1995.56015,1644.37523 1997.03371,1646.64144 C1998.16722,1648.45441 1998.90399,1650.8339 1999.24405,1653.77998 C1999.5841,1656.72605 1999.75412,1661.31506 1999.75412,1667.54715 L1999.75412,1700.35041 C1999.75412,1705.10945 1999.52742,1708.9053 1999.07402,1711.73807 C1998.62062,1714.57083 1997.88385,1716.95032 1996.86369,1718.8766 C1993.91656,1724.31551 1988.87252,1727.03492 1981.7314,1727.03492 C1977.42407,1727.03492 1974.13694,1726.18511 1971.86992,1724.48545 C1969.6029,1722.78579 1967.39258,1720.68957 1965.23892,1718.19674 L1965.23892,1726.01513 L1947.8963,1726.01513 Z M1982.41151,1666.35739 C1982.41151,1663.63794 1981.81642,1661.25845 1980.62624,1659.21886 C1979.43605,1657.17927 1977.1974,1656.15949 1973.91022,1656.15949 C1971.4165,1656.15949 1969.34788,1657.03763 1967.70429,1658.79395 C1966.0607,1660.55026 1965.23892,1662.78811 1965.23892,1665.50757 L1965.23892,1698.99069 C1965.23892,1702.16338 1966.03236,1704.74116 1967.61927,1706.7241 C1969.20619,1708.70703 1971.30315,1709.69849 1973.91022,1709.69849 C1976.85735,1709.69849 1979.01099,1708.62205 1980.3712,1706.46915 C1981.73141,1704.31625 1982.41151,1701.48353 1982.41151,1697.9709 L1982.41151,1666.35739 Z M2012.50605,1668.7369 C2012.50605,1665.22427 2012.73274,1661.99497 2013.18615,1659.04889 C2013.63955,1656.10282 2014.48967,1653.49671 2015.73653,1651.2305 C2017.77685,1647.49125 2020.6956,1644.48856 2024.49285,1642.22235 C2028.29011,1639.95614 2032.9091,1638.82305 2038.34995,1638.82305 C2043.79079,1638.82305 2048.40978,1639.95614 2052.20704,1642.22235 C2056.00429,1644.48856 2058.92304,1647.49125 2060.96336,1651.2305 C2062.21022,1653.49671 2063.06034,1656.10282 2063.51374,1659.04889 C2063.96715,1661.99497 2064.19384,1665.22427 2064.19384,1668.7369 L2064.19384,1697.12107 C2064.19384,1700.6337 2063.96715,1703.863 2063.51374,1706.80908 C2063.06034,1709.75516 2062.21022,1712.36126 2060.96336,1714.62747 C2058.92304,1718.36672 2056.00429,1721.36941 2052.20704,1723.63562 C2048.40978,1725.90184 2043.79079,1727.03492 2038.34995,1727.03492 C2032.9091,1727.03492 2028.29011,1725.90184 2024.49285,1723.63562 C2020.6956,1721.36941 2017.77685,1718.36672 2015.73653,1714.62747 C2014.48967,1712.36126 2013.63955,1709.75516 2013.18615,1706.80908 C2012.73274,1703.863 2012.50605,1700.6337 2012.50605,1697.12107 L2012.50605,1668.7369 Z M2029.84866,1699.84051 C2029.84866,1703.12652 2030.61377,1705.59099 2032.14401,1707.23399 C2033.67425,1708.877 2035.74287,1709.69849 2038.34995,1709.69849 C2040.95702,1709.69849 2043.02564,1708.877 2044.55588,1707.23399 C2046.08612,1705.59099 2046.85123,1703.12652 2046.85123,1699.84051 L2046.85123,1666.01746 C2046.85123,1662.73145 2046.08612,1660.26699 2044.55588,1658.62398 C2043.02564,1656.98098 2040.95702,1656.15949 2038.34995,1656.15949 C2035.74287,1656.15949 2033.67425,1656.98098 2032.14401,1658.62398 C2030.61377,1660.26699 2029.84866,1662.73145 2029.84866,1666.01746 L2029.84866,1699.84051 Z M2076.94577,1639.84284 L2076.94577,1613.66822 L2094.28838,1613.66822 L2094.28838,1639.84284 L2105,1639.84284 L2105,1653.44005 L2094.28838,1653.44005 L2094.28838,1701.20023 C2094.28838,1703.23982 2094.48675,1704.82615 2094.88347,1705.95925 C2095.2802,1707.09236 2095.93196,1707.94218 2096.83877,1708.50873 C2097.74558,1709.07528 2098.85073,1709.41521 2100.15427,1709.52852 C2101.45781,1709.64183 2103.07303,1709.69849 2105,1709.69849 L2105,1726.01513 L2097.85892,1726.01513 C2093.89164,1726.01513 2090.57617,1725.39193 2087.91242,1724.14552 C2085.24867,1722.8991 2083.12337,1721.31278 2081.53646,1719.3865 C2079.94955,1717.46022 2078.78772,1715.27902 2078.05093,1712.84284 C2077.31415,1710.40666 2076.94577,1708.0555 2076.94577,1705.78929 L2076.94577,1653.44005 L2068.27446,1653.44005 L2068.27446,1639.84284 L2076.94577,1639.84284 Z M1661.06303,1895.98021 L1661.06303,1791.28172 L1641,1791.28172 L1641,1774.96508 L1698.46867,1774.96508 L1698.46867,1791.28172 L1678.40564,1791.28172 L1678.40564,1895.98021 L1661.06303,1895.98021 Z M1755.25724,1859.43772 L1720.91206,1859.43772 L1720.91206,1871.16531 C1720.91206,1873.88476 1721.67716,1875.98098 1723.2074,1877.45402 C1724.73764,1878.92705 1726.80627,1879.66356 1729.41334,1879.66356 C1732.70052,1879.66356 1734.88249,1878.70044 1735.95933,1876.77416 C1737.03616,1874.84788 1737.68792,1872.92162 1737.91462,1870.99534 L1755.25724,1870.99534 C1755.25724,1878.58715 1752.93358,1884.70584 1748.28619,1889.35157 C1746.01917,1891.73109 1743.29878,1893.60069 1740.12495,1894.96042 C1736.95113,1896.32015 1733.38062,1897 1729.41334,1897 C1723.97249,1897 1719.35351,1895.86691 1715.55625,1893.6007 C1711.75899,1891.33449 1708.84024,1888.3318 1706.79993,1884.59255 C1705.55307,1882.32634 1704.70295,1879.72023 1704.24954,1876.77416 C1703.79614,1873.82808 1703.56944,1870.59878 1703.56944,1867.08615 L1703.56944,1838.70198 C1703.56944,1835.18935 1703.79614,1831.96005 1704.24954,1829.01397 C1704.70295,1826.06789 1705.55307,1823.46179 1706.79993,1821.19558 C1708.84024,1817.45633 1711.75899,1814.45364 1715.55625,1812.18743 C1719.35351,1809.92121 1723.97249,1808.78813 1729.41334,1808.78813 C1733.38062,1808.78813 1736.97946,1809.46798 1740.20997,1810.82771 C1743.44047,1812.18743 1746.18919,1814.05703 1748.45621,1816.43655 C1752.99025,1821.53553 1755.25724,1827.93749 1755.25724,1835.64261 L1755.25724,1859.43772 Z M1720.91206,1845.84051 L1737.91462,1845.84051 L1737.91462,1835.98254 C1737.91462,1832.69653 1737.14951,1830.23206 1735.61927,1828.58906 C1734.08904,1826.94605 1732.02041,1826.12456 1729.41334,1826.12456 C1726.80627,1826.12456 1724.73764,1826.94605 1723.2074,1828.58906 C1721.67716,1830.23206 1720.91206,1832.69653 1720.91206,1835.98254 L1720.91206,1845.84051 Z M1800.82411,1895.98021 L1800.82411,1887.14203 L1800.48406,1887.14203 C1798.21704,1890.31472 1795.92172,1892.75086 1793.59802,1894.45052 C1791.27433,1896.15018 1788.01553,1897 1783.82155,1897 C1781.78123,1897 1779.7126,1896.6884 1777.61561,1896.06519 C1775.51862,1895.44198 1773.50667,1894.28057 1771.5797,1892.58091 C1769.65273,1890.99456 1768.09418,1888.70005 1766.90399,1885.69732 C1765.71381,1882.69459 1765.11872,1878.81376 1765.11872,1874.05471 C1765.11872,1869.18236 1765.51545,1864.90495 1766.3089,1861.22235 C1767.10236,1857.53976 1768.5759,1854.45209 1770.72957,1851.95925 C1772.76989,1849.57973 1775.54695,1847.79512 1779.06083,1846.60536 C1782.57471,1845.41559 1787.05201,1844.82072 1792.49285,1844.82072 L1794.36314,1844.82072 C1795.04324,1844.82072 1795.66666,1844.87738 1796.23342,1844.99069 C1796.80017,1845.104 1797.48027,1845.16065 1798.27373,1845.16065 C1799.06718,1845.16065 1799.9173,1845.21731 1800.82411,1845.33062 L1800.82411,1836.32247 C1800.82411,1833.37639 1800.20069,1830.94025 1798.95383,1829.01397 C1797.70697,1827.08769 1795.43998,1826.12456 1792.1528,1826.12456 C1789.88578,1826.12456 1787.81716,1826.86107 1785.94687,1828.33411 C1784.07658,1829.80715 1782.85807,1831.96002 1782.29132,1834.79278 L1765.45878,1834.79278 C1765.91218,1827.08766 1768.51921,1820.85567 1773.27996,1816.09662 C1775.54698,1813.83041 1778.26736,1812.0458 1781.44119,1810.74272 C1784.61502,1809.43965 1788.18552,1808.78813 1792.1528,1808.78813 C1795.78004,1808.78813 1799.18051,1809.35467 1802.35434,1810.48778 C1805.52817,1811.62088 1808.30523,1813.32052 1810.6856,1815.58673 C1812.95262,1817.85294 1814.76621,1820.68566 1816.12642,1824.08498 C1817.48663,1827.4843 1818.16673,1831.45011 1818.16673,1835.98254 L1818.16673,1895.98021 L1800.82411,1895.98021 Z M1800.82411,1858.92782 C1798.89714,1858.58789 1797.31025,1858.41793 1796.06339,1858.41793 C1792.32281,1858.41793 1789.12069,1859.29607 1786.45694,1861.05239 C1783.7932,1862.8087 1782.46134,1866.00968 1782.46134,1870.65541 C1782.46134,1873.94142 1783.25479,1876.60418 1784.8417,1878.64377 C1786.42861,1880.68336 1788.63893,1881.70314 1791.4727,1881.70314 C1794.41983,1881.70314 1796.71515,1880.74002 1798.35874,1878.81374 C1800.00233,1876.88746 1800.82411,1874.16804 1800.82411,1870.65541 L1800.82411,1858.92782 Z M1830.91865,1895.98021 L1830.91865,1809.80792 L1848.26127,1809.80792 L1848.26127,1818.1362 L1848.60132,1818.1362 C1850.41494,1815.41675 1852.59691,1813.1789 1855.14731,1811.42258 C1857.6977,1809.66627 1860.9565,1808.78813 1864.92378,1808.78813 C1868.66436,1808.78813 1871.78147,1809.6946 1874.27519,1811.50757 C1876.76891,1813.32054 1878.8092,1815.30344 1880.39612,1817.45634 C1882.54978,1815.07682 1884.93012,1813.03726 1887.53719,1811.3376 C1890.14427,1809.63794 1893.77144,1808.78813 1898.41883,1808.78813 C1900.5725,1808.78813 1902.78282,1809.15638 1905.04984,1809.8929 C1907.31686,1810.62942 1909.35714,1811.84749 1911.17076,1813.54715 C1912.98437,1815.24681 1914.45792,1817.428 1915.59143,1820.0908 C1916.72494,1822.7536 1917.29168,1826.01123 1917.29168,1829.8638 L1917.29168,1895.98021 L1899.94907,1895.98021 L1899.94907,1836.32247 C1899.94907,1833.14977 1899.2123,1830.65697 1897.73873,1828.844 C1896.26517,1827.03103 1894.16821,1826.12456 1891.44778,1826.12456 C1888.1606,1826.12456 1885.89362,1827.14434 1884.64676,1829.18393 C1883.3999,1831.22353 1882.77647,1834.16956 1882.77647,1838.02212 L1882.77647,1895.98021 L1865.43386,1895.98021 L1865.43386,1836.32247 C1865.43386,1833.14977 1864.69709,1830.65697 1863.22353,1828.844 C1861.74996,1827.03103 1859.653,1826.12456 1856.93258,1826.12456 C1853.6454,1826.12456 1851.37841,1827.14434 1850.13155,1829.18393 C1848.88469,1831.22353 1848.26127,1834.16956 1848.26127,1838.02212 L1848.26127,1895.98021 L1830.91865,1895.98021 Z M1520.97486,1705.01257 L1520.97486,1681.01438 L1425,1728.98897 L1329.02514,1681.01438 L1329.02514,1929.01669 L1265,1896 L1265,1569 L1425,1650.0215 L1585,1569 L1585,1752.59536 L1505,1793 L1505,1896 L1440.97486,1929.01669 L1440.97486,1825.01438 L1345,1872.98897 L1345,1794.0215 L1520.97486,1705.01257 Z" id="Microbot-Team-灰色" fill="#D4D4D4"></path>
    </g>
</svg>